<svg width="264" height="40" viewBox="0 0 264 40" fill="none" xmlns="http://www.w3.org/2000/svg">
<path d="M20.0001 1.71777L36.1487 35.8839H3.85156L20.0001 1.71777Z" fill="#FECD2F"/>
<path fill-rule="evenodd" clip-rule="evenodd" d="M10.4602 31.7672H29.5398L20 11.5835L10.4602 31.7672ZM0 34.1661L16.1486 0H23.8514L40 34.1661L36.1486 40H3.85141L0 34.1661Z" fill="url(#paint0_linear_82905_313)"/>
<path d="M51.36 33L61.32 10.05H61.56L71.52 33H66.48L60.12 16.86L63.27 14.7L55.65 33H51.36ZM58.17 25.02H64.8L66.33 28.68H56.82L58.17 25.02ZM74.0487 9.33H78.2487V33H74.0487V9.33ZM86.8041 33.63C85.6241 33.63 84.6341 33.27 83.8341 32.55C83.0341 31.81 82.6141 30.86 82.5741 29.7V19.89H86.7741V28.14C86.8141 28.72 86.9641 29.19 87.2241 29.55C87.4841 29.89 87.9241 30.06 88.5441 30.06C89.1641 30.06 89.6941 29.85 90.1341 29.43C90.5941 29.01 90.9441 28.44 91.1841 27.72C91.4441 26.98 91.5741 26.15 91.5741 25.23V19.89H95.7741V33H91.9641L91.6341 30.6L91.6941 30.87C91.3941 31.41 91.0141 31.89 90.5541 32.31C90.0941 32.73 89.5441 33.05 88.9041 33.27C88.2841 33.51 87.5841 33.63 86.8041 33.63ZM103.874 19.89L104.264 23.49L104.174 22.95C104.554 22.17 105.074 21.51 105.734 20.97C106.394 20.41 107.044 19.98 107.684 19.68C108.344 19.38 108.844 19.23 109.184 19.23L108.974 23.43C107.994 23.31 107.154 23.47 106.454 23.91C105.754 24.35 105.214 24.93 104.834 25.65C104.454 26.37 104.264 27.11 104.264 27.87V33H100.094V19.89H103.874ZM117.479 33.36C116.259 33.36 115.149 33.12 114.149 32.64C113.169 32.14 112.389 31.38 111.809 30.36C111.229 29.34 110.939 28.04 110.939 26.46C110.939 24.98 111.239 23.7 111.839 22.62C112.439 21.54 113.229 20.71 114.209 20.13C115.189 19.53 116.229 19.23 117.329 19.23C118.629 19.23 119.609 19.45 120.269 19.89C120.949 20.31 121.509 20.78 121.949 21.3L121.769 21.81L122.159 19.89H126.059V33H121.859V30.15L122.189 31.05C122.149 31.05 122.029 31.17 121.829 31.41C121.629 31.63 121.329 31.9 120.929 32.22C120.549 32.52 120.069 32.78 119.489 33C118.929 33.24 118.259 33.36 117.479 33.36ZM118.679 29.94C119.179 29.94 119.629 29.87 120.029 29.73C120.429 29.57 120.779 29.35 121.079 29.07C121.379 28.77 121.639 28.4 121.859 27.96V24.75C121.699 24.31 121.459 23.94 121.139 23.64C120.819 23.32 120.439 23.08 119.999 22.92C119.559 22.74 119.069 22.65 118.529 22.65C117.929 22.65 117.369 22.81 116.849 23.13C116.349 23.43 115.949 23.85 115.649 24.39C115.349 24.93 115.199 25.55 115.199 26.25C115.199 26.95 115.359 27.58 115.679 28.14C115.999 28.7 116.419 29.14 116.939 29.46C117.479 29.78 118.059 29.94 118.679 29.94ZM136.927 11.31C139.107 11.31 140.817 11.76 142.057 12.66C143.317 13.54 143.947 14.92 143.947 16.8C143.947 17.94 143.687 18.93 143.167 19.77C142.647 20.61 141.917 21.27 140.977 21.75C140.057 22.23 138.967 22.5 137.707 22.56L137.287 21.06C138.747 21.1 140.057 21.36 141.217 21.84C142.377 22.32 143.297 22.99 143.977 23.85C144.657 24.71 144.997 25.73 144.997 26.91C144.997 27.99 144.797 28.92 144.397 29.7C143.997 30.46 143.457 31.09 142.777 31.59C142.097 32.07 141.327 32.43 140.467 32.67C139.607 32.89 138.717 33 137.797 33H131.347V11.31H136.927ZM137.527 20.82C138.727 20.82 139.597 20.49 140.137 19.83C140.677 19.15 140.947 18.33 140.947 17.37C140.947 16.23 140.597 15.4 139.897 14.88C139.197 14.36 138.257 14.1 137.077 14.1H134.257V20.82H137.527ZM137.647 30.3C138.447 30.3 139.177 30.18 139.837 29.94C140.517 29.7 141.047 29.33 141.427 28.83C141.827 28.33 142.027 27.7 142.027 26.94C142.027 26.1 141.797 25.44 141.337 24.96C140.897 24.48 140.327 24.14 139.627 23.94C138.927 23.72 138.207 23.61 137.467 23.61H134.257V30.3H137.647ZM148.121 26.67C148.121 25.43 148.411 24.31 148.991 23.31C149.591 22.31 150.411 21.52 151.451 20.94C152.491 20.36 153.671 20.07 154.991 20.07C156.351 20.07 157.541 20.36 158.561 20.94C159.581 21.52 160.371 22.31 160.931 23.31C161.491 24.31 161.771 25.43 161.771 26.67C161.771 27.91 161.491 29.04 160.931 30.06C160.371 31.06 159.571 31.85 158.531 32.43C157.511 33.01 156.321 33.3 154.961 33.3C153.641 33.3 152.461 33.03 151.421 32.49C150.401 31.93 149.591 31.16 148.991 30.18C148.411 29.18 148.121 28.01 148.121 26.67ZM150.911 26.7C150.911 27.5 151.091 28.23 151.451 28.89C151.811 29.53 152.291 30.04 152.891 30.42C153.511 30.8 154.191 30.99 154.931 30.99C155.711 30.99 156.401 30.8 157.001 30.42C157.621 30.04 158.101 29.53 158.441 28.89C158.781 28.23 158.951 27.5 158.951 26.7C158.951 25.9 158.781 25.18 158.441 24.54C158.101 23.88 157.621 23.36 157.001 22.98C156.401 22.58 155.711 22.38 154.931 22.38C154.171 22.38 153.481 22.58 152.861 22.98C152.261 23.38 151.781 23.91 151.421 24.57C151.081 25.21 150.911 25.92 150.911 26.7ZM164.469 26.67C164.469 25.43 164.759 24.31 165.339 23.31C165.939 22.31 166.759 21.52 167.799 20.94C168.839 20.36 170.019 20.07 171.339 20.07C172.699 20.07 173.889 20.36 174.909 20.94C175.929 21.52 176.719 22.31 177.279 23.31C177.839 24.31 178.119 25.43 178.119 26.67C178.119 27.91 177.839 29.04 177.279 30.06C176.719 31.06 175.919 31.85 174.879 32.43C173.859 33.01 172.669 33.3 171.309 33.3C169.989 33.3 168.809 33.03 167.769 32.49C166.749 31.93 165.939 31.16 165.339 30.18C164.759 29.18 164.469 28.01 164.469 26.67ZM167.259 26.7C167.259 27.5 167.439 28.23 167.799 28.89C168.159 29.53 168.639 30.04 169.239 30.42C169.859 30.8 170.539 30.99 171.279 30.99C172.059 30.99 172.749 30.8 173.349 30.42C173.969 30.04 174.449 29.53 174.789 28.89C175.129 28.23 175.299 27.5 175.299 26.7C175.299 25.9 175.129 25.18 174.789 24.54C174.449 23.88 173.969 23.36 173.349 22.98C172.749 22.58 172.059 22.38 171.279 22.38C170.519 22.38 169.829 22.58 169.209 22.98C168.609 23.38 168.129 23.91 167.769 24.57C167.429 25.21 167.259 25.92 167.259 26.7ZM181.897 33V9.78H184.687V33H181.897ZM187.687 24.75L193.387 33H190.117L185.827 26.31L187.687 24.75ZM183.817 29.04L183.547 26.37L191.077 20.31L192.787 21.78L183.817 29.04ZM200.318 33.24C199.438 33.24 198.578 33.09 197.738 32.79C196.918 32.47 196.238 32 195.698 31.38L196.868 29.76C197.388 30.26 197.918 30.64 198.458 30.9C199.018 31.14 199.568 31.26 200.108 31.26C200.508 31.26 200.878 31.21 201.218 31.11C201.558 31.01 201.828 30.85 202.028 30.63C202.248 30.39 202.358 30.07 202.358 29.67C202.358 29.23 202.208 28.88 201.908 28.62C201.628 28.36 201.258 28.15 200.798 27.99C200.358 27.83 199.888 27.68 199.388 27.54C198.368 27.2 197.588 26.73 197.048 26.13C196.508 25.53 196.238 24.8 196.238 23.94C196.238 23.28 196.398 22.67 196.718 22.11C197.058 21.53 197.548 21.06 198.188 20.7C198.848 20.34 199.658 20.16 200.618 20.16C201.478 20.16 202.248 20.27 202.928 20.49C203.608 20.69 204.248 21.03 204.848 21.51L203.738 23.25C203.378 22.87 202.948 22.59 202.448 22.41C201.948 22.23 201.498 22.13 201.098 22.11C200.758 22.09 200.428 22.14 200.108 22.26C199.808 22.38 199.558 22.55 199.358 22.77C199.158 22.99 199.058 23.25 199.058 23.55C199.058 23.97 199.198 24.31 199.478 24.57C199.758 24.83 200.118 25.04 200.558 25.2C201.018 25.34 201.468 25.49 201.908 25.65C202.528 25.83 203.078 26.07 203.558 26.37C204.038 26.67 204.418 27.04 204.698 27.48C204.998 27.92 205.148 28.47 205.148 29.13C205.148 29.87 204.968 30.56 204.608 31.2C204.268 31.82 203.738 32.32 203.018 32.7C202.318 33.06 201.418 33.24 200.318 33.24Z" fill="black"/>
<defs>
<linearGradient id="paint0_linear_82905_313" x1="20" y1="0" x2="20" y2="40" gradientUnits="userSpaceOnUse">
<stop offset="0.677083" stop-color="#FD8325"/>
<stop offset="1" stop-color="#FC6621"/>
</linearGradient>
</defs>
</svg>
