<svg width="48" height="48" viewBox="0 0 48 48" fill="none" xmlns="http://www.w3.org/2000/svg">
<g clip-path="url(#clip0_351_3895)">
<path d="M29.9998 12C27.6798 12 25.4532 13.08 23.9998 14.7867C22.5465 13.08 20.3198 12 17.9998 12C13.8932 12 10.6665 15.2267 10.6665 19.3333C10.6665 24.3733 15.1998 28.48 22.0665 34.72L23.9998 36.4667L25.9332 34.7067C32.7998 28.48 37.3332 24.3733 37.3332 19.3333C37.3332 15.2267 34.1065 12 29.9998 12ZM24.1332 32.7333L23.9998 32.8667L23.8665 32.7333C17.5198 26.9867 13.3332 23.1867 13.3332 19.3333C13.3332 16.6667 15.3332 14.6667 17.9998 14.6667C20.0532 14.6667 22.0532 15.9867 22.7598 17.8133H25.2532C25.9465 15.9867 27.9465 14.6667 29.9998 14.6667C32.6665 14.6667 34.6665 16.6667 34.6665 19.3333C34.6665 23.1867 30.4798 26.9867 24.1332 32.7333Z" fill="#002F52"/>
</g>
<defs>
<clipPath id="clip0_351_3895">
<rect width="32" height="32" fill="white" transform="translate(8 8)"/>
</clipPath>
</defs>
</svg>
